<svg xmlns="http://www.w3.org/2000/svg" width="1485" height="1049" viewBox="0 0 1485 1049" fill="none">
<path opacity="0.43" d="M1433.68 102.686C1432.46 100.281 1430.34 98.4585 1427.77 97.618C1425.21 96.7775 1422.42 96.9879 1420.01 98.2029C1419.05 98.7529 1418.19 99.4674 1417.48 100.314L1312.28 15.2549C1313.07 13.881 1313.53 12.3411 1313.62 10.7581C1313.71 9.17509 1313.43 7.59279 1312.8 6.1374C1312.17 4.68201 1311.21 3.39381 1310 2.37556C1308.78 1.35731 1307.34 0.637178 1305.8 0.272615C1304.26 -0.091947 1302.65 -0.0908542 1301.11 0.275807C1299.56 0.642468 1298.13 1.36455 1296.91 2.38446C1295.7 3.40436 1294.74 4.69387 1294.11 6.15011C1293.48 7.60635 1293.21 9.18904 1293.3 10.7719L1063.17 60.7732C1063.04 60.4328 1062.9 60.1001 1062.74 59.7769C1062.17 58.5304 1061.35 57.4116 1060.34 56.4879C1059.33 55.5642 1058.14 54.8544 1056.85 54.4013C1055.55 53.9482 1054.18 53.7609 1052.81 53.8509C1051.45 53.9408 1050.11 54.3061 1048.89 54.9247C1047.66 55.5433 1046.58 56.4026 1045.7 57.451C1044.81 58.4993 1044.15 59.7152 1043.75 61.0256C1043.35 62.336 1043.22 63.714 1043.36 65.0768C1043.5 66.4396 1043.92 67.7592 1044.59 68.9565C1044.9 69.5724 1045.27 70.153 1045.7 70.688L956.19 166.255C955.042 165.438 953.737 164.869 952.357 164.583C950.977 164.297 949.553 164.3 948.175 164.593C946.797 164.886 945.494 165.462 944.35 166.284C943.206 167.106 942.245 168.157 941.528 169.369C940.811 170.582 940.354 171.93 940.186 173.329C940.017 174.727 940.141 176.146 940.549 177.494C940.957 178.842 941.64 180.091 942.556 181.162C943.472 182.232 944.6 183.101 945.87 183.713L901.433 320.481C899.297 320.111 897.099 320.444 895.169 321.43C893.304 322.366 891.772 323.854 890.783 325.692C889.794 327.53 889.395 329.628 889.641 331.7L655.618 395.198L655.404 394.676C654.715 393.303 653.723 392.103 652.503 391.168C651.284 390.232 649.868 389.585 648.363 389.275C646.858 388.965 645.302 388.999 643.812 389.376C642.321 389.753 640.936 390.462 639.759 391.451C638.583 392.439 637.645 393.682 637.017 395.084C636.39 396.487 636.088 398.014 636.134 399.55C636.181 401.086 636.575 402.591 637.286 403.953C637.998 405.315 639.009 406.498 640.244 407.414L552.461 570.226C550.954 569.647 549.33 569.436 547.725 569.611C546.119 569.787 544.579 570.343 543.233 571.234C541.886 572.126 540.772 573.326 539.984 574.735C539.196 576.144 538.756 577.721 538.701 579.334L334.12 597.836C333.951 597.071 333.688 596.33 333.337 595.63C332.119 593.221 329.994 591.393 327.429 590.55C324.864 589.707 322.069 589.918 319.659 591.135C317.249 592.352 315.422 594.477 314.579 597.041C313.735 599.606 313.946 602.4 315.163 604.81C315.306 605.094 315.472 605.355 315.638 605.64L200.951 703.934C199.271 702.474 197.158 701.606 194.936 701.463C192.714 701.321 190.507 701.913 188.655 703.148C186.803 704.382 185.407 706.191 184.684 708.297C183.961 710.402 183.949 712.686 184.652 714.798L5.64657 805.123L0 802.917L110.416 919.144C109.02 920.972 108.284 923.219 108.329 925.519C108.374 927.819 109.197 930.036 110.664 931.808C112.131 933.58 114.155 934.803 116.407 935.278C118.659 935.752 121.004 935.449 123.062 934.419H123.252L208.496 1022.75C207.488 1023.91 206.756 1025.29 206.356 1026.77C205.955 1028.25 205.896 1029.81 206.183 1031.32C206.47 1032.83 207.095 1034.25 208.012 1035.49C208.928 1036.72 210.112 1037.73 211.475 1038.44C212.838 1039.15 214.345 1039.55 215.881 1039.59C217.418 1039.64 218.945 1039.33 220.348 1038.71C221.75 1038.08 222.992 1037.14 223.98 1035.96C224.968 1034.78 225.677 1033.4 226.052 1031.91L334.309 1040.02C334.436 1041.2 334.773 1042.35 335.306 1043.41C336.523 1045.82 338.649 1047.65 341.214 1048.49C343.779 1049.33 346.573 1049.12 348.983 1047.91C351.393 1046.69 353.221 1044.56 354.064 1042C354.907 1039.44 354.697 1036.64 353.479 1034.23C352.705 1032.73 351.583 1031.44 350.205 1030.46L494.572 770.848C495.958 771.495 497.474 771.816 499.004 771.787C500.534 771.758 502.037 771.38 503.398 770.682C505.744 769.514 507.549 767.485 508.433 765.018C509.317 762.551 509.213 759.838 508.143 757.446L610.16 703.673C611.695 705.707 613.939 707.09 616.446 707.547C618.953 708.004 621.541 707.501 623.695 706.14C625.848 704.778 627.411 702.656 628.073 700.195C628.735 697.735 628.447 695.115 627.266 692.857V692.715L763.519 554.737C764.918 555.761 766.556 556.41 768.276 556.621C769.997 556.833 771.743 556.601 773.348 555.947C774.954 555.293 776.365 554.239 777.448 552.886C778.53 551.532 779.248 549.924 779.533 548.214L930.947 550.989C931.063 552.246 931.417 553.47 931.99 554.595C932.56 555.841 933.375 556.96 934.388 557.884C935.401 558.807 936.589 559.517 937.883 559.97C939.177 560.424 940.549 560.611 941.917 560.521C943.284 560.431 944.62 560.066 945.843 559.447C947.066 558.828 948.152 557.969 949.034 556.921C949.917 555.872 950.579 554.656 950.981 553.346C951.382 552.036 951.514 550.658 951.37 549.295C951.225 547.932 950.807 546.612 950.14 545.415C949.966 545.062 949.767 544.722 949.547 544.395L1122.19 383.338C1123.51 384.35 1125.06 385.023 1126.7 385.296C1128.34 385.57 1130.02 385.436 1131.59 384.906C1133.17 384.376 1134.59 383.467 1135.73 382.259C1136.87 381.051 1137.7 379.58 1138.14 377.977L1299.47 395.032C1299.49 396.545 1299.86 398.033 1300.53 399.387C1301.2 400.742 1302.17 401.929 1303.36 402.863C1304.55 403.797 1305.94 404.453 1307.41 404.785C1308.89 405.116 1310.42 405.114 1311.9 404.779C1313.37 404.444 1314.76 403.784 1315.94 402.848C1317.13 401.911 1318.1 400.721 1318.77 399.365C1319.44 398.009 1319.8 396.52 1319.82 395.007C1319.84 393.494 1319.53 391.996 1318.9 390.62L1468.6 272.591C1469.9 273.598 1471.41 274.278 1473.03 274.571C1474.64 274.865 1476.3 274.764 1477.86 274.277C1479.43 273.79 1480.85 272.931 1482.01 271.774C1483.17 270.618 1484.04 269.197 1484.53 267.634C1485.02 266.071 1485.13 264.412 1484.84 262.799C1484.55 261.185 1483.88 259.666 1482.88 258.37C1481.87 257.074 1480.57 256.04 1479.08 255.357C1477.59 254.673 1475.96 254.36 1474.32 254.445L1429.34 116.349C1431.72 115.105 1433.51 112.971 1434.32 110.411C1435.14 107.852 1434.91 105.075 1433.68 102.686ZM1465.69 269.104C1465.9 269.534 1466.14 269.947 1466.42 270.337L1331.19 376.934L1317.14 388.035C1316.75 387.582 1316.31 387.168 1315.84 386.801L1386.25 209.97L1465.64 259.972C1464.92 261.398 1464.56 262.972 1464.56 264.567C1464.57 266.162 1464.96 267.732 1465.69 269.151V269.104ZM1050.85 74.2223C1053.14 74.8711 1055.59 74.6917 1057.76 73.7154C1059.93 72.7391 1061.68 71.0287 1062.72 68.8853L1249.24 126.88C1249.19 127.401 1249.19 127.925 1249.24 128.446L1009.93 164.191L1050.85 74.2223ZM1310.71 384.666L1262.79 137.981C1263.2 137.842 1263.6 137.667 1263.97 137.459C1265.17 136.885 1266.25 136.078 1267.13 135.087L1383.74 208.618L1313.3 385.544C1312.48 385.142 1311.61 384.847 1310.71 384.666ZM1264.28 119.432L1274.51 92.0595L1412.52 108.402L1269.17 125.647C1268.98 124.994 1268.74 124.359 1268.44 123.749C1267.52 121.925 1266.07 120.421 1264.28 119.432ZM1261.48 118.388C1259.21 117.912 1256.84 118.221 1254.77 119.266C1252.75 120.287 1251.14 121.958 1250.19 124.01L1069.6 67.7705L1271.45 91.68L1261.48 118.388ZM1236.86 133.213L998.753 201.36C998.688 201.238 998.632 201.111 998.587 200.981C997.767 199.365 996.53 197.997 995.004 197.019L1008.46 167.441L1236.86 133.213ZM992.299 195.786C989.84 195.09 987.209 195.335 984.921 196.474C984.048 196.91 983.248 197.478 982.549 198.158L959.203 179.68C960.097 178.138 960.563 176.386 960.555 174.604L1004.95 167.963L992.299 195.786ZM954.98 183.689C955.846 183.252 956.646 182.693 957.353 182.029L980.674 200.483C979.832 201.943 979.368 203.591 979.322 205.276C979.277 206.962 979.652 208.632 980.413 210.136C980.926 211.147 981.599 212.068 982.406 212.864L904.398 321.477L948.835 184.709C950.94 185.029 953.092 184.672 954.98 183.689ZM900.27 340.643L938.444 540.197C937.796 540.367 937.167 540.606 936.569 540.908C935.268 541.562 934.127 542.494 933.224 543.636L810.661 481.23L895.834 339.884C897.236 340.47 898.753 340.729 900.27 340.643ZM941.647 539.889H941.409L903.188 340.168C903.613 340.029 904.026 339.854 904.422 339.646C906.751 338.469 908.536 336.438 909.404 333.977L968.717 345.6L941.647 539.889ZM909.997 331.012C910.072 329.265 909.705 327.527 908.93 325.96C908.415 324.952 907.733 324.037 906.913 323.256L984.945 214.643C985.512 214.94 986.109 215.178 986.724 215.355L969.073 342.564L909.997 331.012ZM989.69 215.782C991.248 215.767 992.783 215.394 994.174 214.691L994.791 214.335L1098.04 340.548L1120.91 368.347C1119.99 369.385 1119.28 370.594 1118.83 371.905L972.015 343.062L989.69 215.782ZM1123.85 366.212L1123.21 366.592L1100.87 339.267L997.021 212.39C997.14 212.248 997.282 212.105 997.4 211.939L1162.05 308.811L1131.9 365.738C1130.58 365.245 1129.18 365.028 1127.78 365.102C1126.38 365.175 1125.01 365.537 1123.76 366.165L1123.85 366.212ZM998.919 209.425C999.566 207.791 999.795 206.022 999.583 204.278L1250.1 132.549C1250.16 132.671 1250.22 132.798 1250.26 132.929C1251 134.346 1252.04 135.579 1253.32 136.534L1163.45 306.154L998.919 209.425ZM1255.98 137.934C1257.21 138.361 1258.5 138.554 1259.8 138.503L1307.65 384.785C1306.7 384.957 1305.78 385.269 1304.92 385.71C1303.9 386.225 1302.96 386.915 1302.17 387.75L1165.99 307.672L1255.98 137.934ZM1268.67 132.431C1269.2 131.223 1269.49 129.927 1269.53 128.612L1415.1 111.106L1415.46 111.913C1416.46 113.983 1418.13 115.654 1420.2 116.657L1384.83 205.582L1268.67 132.431ZM1415.6 102.686C1415.1 103.635 1414.75 104.661 1414.58 105.722L1275.58 89.1183L1301.41 20.0226C1303.67 20.5202 1306.04 20.2184 1308.1 19.1687C1308.97 18.7616 1309.77 18.2258 1310.48 17.5795L1415.6 102.686ZM1294.11 13.6894C1294.11 14.0215 1294.39 14.3536 1294.53 14.662C1295.46 16.4873 1296.91 17.9915 1298.71 18.979L1272.61 88.8099L1063.83 64.0702C1063.83 64.0702 1063.83 63.8093 1063.83 63.6907L1294.11 13.6894ZM1047.86 72.7279C1047.94 72.7968 1048.03 72.8529 1048.12 72.894L1006.42 164.713L960.128 171.639C959.956 171.086 959.742 170.547 959.488 170.026C959.172 169.415 958.799 168.835 958.373 168.295L1047.86 72.7279ZM890.448 334.57C890.509 334.748 890.58 334.923 890.662 335.092C891.301 336.342 892.189 337.447 893.271 338.342L807.861 479.878L655.902 402.504C656.384 401.078 656.538 399.562 656.353 398.068L890.448 334.57ZM338.793 1030.29C337.554 1031.13 336.51 1032.22 335.733 1033.5L250.204 990.256L296.041 931.786C298.197 933.015 300.729 933.412 303.159 932.901L338.793 1030.29ZM523.493 665.603L499.531 751.469C497.711 751.344 495.891 751.713 494.264 752.536C493.724 752.818 493.209 753.144 492.721 753.509L332.672 605.948C332.941 605.556 333.179 605.143 333.384 604.715L523.493 665.603ZM328.948 609.292C329.591 608.974 330.196 608.585 330.751 608.13L490.705 755.643C490.21 756.333 489.803 757.082 489.495 757.873L316.516 729.86L325.033 610.289C326.359 610.21 327.657 609.871 328.853 609.292H328.948ZM488.807 760.791C488.656 762.614 489.009 764.444 489.827 766.08L307.927 915.515C306.624 914.339 305.038 913.521 303.325 913.143L316.302 732.872L488.807 760.791ZM300.335 912.811C299.528 912.889 298.733 913.056 297.963 913.309L200.31 719.898C202.13 718.637 203.481 716.811 204.154 714.703L313.289 732.374L300.335 912.811ZM192.481 721.582C194.189 721.922 195.956 721.807 197.606 721.25L295.234 914.661C294.035 915.514 293.032 916.614 292.292 917.887L143.964 859.512L192.481 721.582ZM291.201 920.662C291.201 920.97 291.082 921.278 291.035 921.587L128.637 923.769C128.406 922.311 127.862 920.921 127.043 919.693C126.224 918.464 125.149 917.428 123.892 916.653L143.015 862.287L291.201 920.662ZM121.093 915.538C118.704 914.929 116.174 915.207 113.975 916.321C113.521 916.558 113.085 916.828 112.67 917.128L11.5541 810.626L140.167 861.244L121.093 915.538ZM128.566 927.28L291.059 924.623C291.239 925.638 291.566 926.621 292.031 927.54C292.47 928.412 293.038 929.211 293.716 929.912L247.547 988.856L128.139 928.608C128.286 928.175 128.397 927.731 128.471 927.28H128.566ZM502.544 752.109L526.435 666.505L609.14 693C608.527 694.246 608.177 695.605 608.112 696.992C608.047 698.38 608.267 699.766 608.761 701.064L506.435 754.979C505.359 753.713 503.991 752.728 502.449 752.109H502.544ZM621.406 687.781C620.555 687.497 619.669 687.329 618.773 687.283L583.493 631.637L555.498 587.399C556.586 586.461 557.465 585.304 558.078 584.005C558.691 582.706 559.024 581.292 559.057 579.856L630.991 568.969L621.406 687.781ZM547.858 589.819C549.631 590.009 551.423 589.731 553.054 589.012L581.168 633.463L615.475 687.663C614.857 687.846 614.255 688.076 613.672 688.35C612.651 688.888 611.722 689.584 610.92 690.414L527.241 663.634L547.858 589.819ZM625.463 690.272C625.104 689.901 624.715 689.56 624.301 689.252L634.123 568.542L759.865 549.566C760.029 550.111 760.236 550.643 760.482 551.155C760.765 551.682 761.082 552.189 761.431 552.673L709.45 605.331L625.463 690.272ZM650.991 408.339C651.239 408.224 651.477 408.089 651.703 407.936L761.93 539.77C760.265 541.636 759.352 544.053 759.367 546.554L634.384 565.53L647.077 409.454C648.413 409.348 649.713 408.968 650.896 408.339H650.991ZM764.871 537.445C764.624 537.56 764.386 537.695 764.16 537.849L668.216 423.116L653.981 406.014C654.235 405.751 654.466 405.465 654.669 405.16L806.509 482.439L773.341 537.137C771.987 536.572 770.527 536.307 769.061 536.36C767.594 536.413 766.157 536.784 764.848 537.445H764.871ZM642.901 408.813C643.271 408.96 643.652 409.079 644.04 409.169L631.276 565.933L558.63 576.915C558.044 574.828 556.795 572.988 555.071 571.673L642.901 408.813ZM539.033 582.299C539.429 583.795 540.16 585.181 541.172 586.352C542.183 587.523 543.447 588.449 544.869 589.06L524.299 662.709L334.309 601.868C334.309 601.512 334.309 601.157 334.428 600.801L539.033 582.299ZM317.607 607.917C318.881 609.03 320.415 609.805 322.067 610.17L313.455 729.409L204.486 711.762C204.511 710.116 204.136 708.488 203.395 707.018C203.251 706.741 203.092 706.472 202.92 706.211L317.607 607.917ZM186.147 717.478C187.062 718.785 188.274 719.858 189.682 720.609L141.069 858.421L9.39513 806.594L186.147 717.478ZM125.814 932.569C126.223 932.168 126.596 931.731 126.929 931.265L245.459 991.275L222.09 1021.11C220.577 1020.02 218.791 1019.36 216.928 1019.21C215.065 1019.07 213.198 1019.44 211.532 1020.28C211.243 1020.42 210.965 1020.58 210.702 1020.76L125.814 932.569ZM226.479 1028.87C226.422 1027.44 226.058 1026.04 225.412 1024.77C225.129 1024.23 224.804 1023.71 224.439 1023.23L248.401 992.651L334.689 1036.25C334.628 1036.49 334.58 1036.74 334.547 1036.98L226.479 1028.87ZM347.667 1029.11C345.703 1028.5 343.604 1028.5 341.641 1029.11L306.053 931.857C308.372 930.59 310.106 928.47 310.89 925.947C311.673 923.424 311.445 920.695 310.252 918.337C310.252 918.124 310.015 917.91 309.896 917.697L404.298 840.204L491.583 768.547L492.271 769.187L347.667 1029.11ZM779.628 545.225C779.482 544.086 779.145 542.98 778.632 541.952C777.991 540.697 777.103 539.583 776.022 538.679L809.237 483.791L931.635 546.245C931.406 546.815 931.224 547.402 931.089 548.001L779.628 545.225ZM947.673 542.142C946.751 541.393 945.708 540.807 944.589 540.41L971.445 346.122L1118.16 374.941C1118.12 376.635 1118.49 378.314 1119.25 379.828C1119.49 380.3 1119.77 380.752 1120.08 381.18L947.673 542.142ZM1138.64 374.989C1138.6 373.469 1138.22 371.977 1137.53 370.623C1136.84 369.268 1135.86 368.086 1134.65 367.161L1164.76 310.234L1300.56 390.122C1300.25 390.702 1300.01 391.314 1299.85 391.948L1138.64 374.989ZM1470.29 255.489C1469.25 256.02 1468.31 256.726 1467.51 257.576L1387.39 207.195L1423.17 117.392C1424.26 117.569 1425.38 117.569 1426.47 117.392L1471.26 255.109C1470.89 255.216 1470.53 255.342 1470.17 255.489H1470.29Z" fill="white"/>
</svg>